<svg width="343" height="328" viewBox="0 0 343 328" fill="none" xmlns="http://www.w3.org/2000/svg">
<path opacity="0.1" d="M286.034 232.386C317.35 182.924 302.64 117.441 253.179 86.1244C203.717 54.8082 138.233 69.5182 106.917 118.98C75.6005 168.442 90.3106 233.926 139.772 265.242C189.234 296.558 254.718 281.848 286.034 232.386ZM124.828 130.321C149.881 90.7512 202.268 78.9832 241.838 104.036C281.407 129.089 293.175 181.476 268.122 221.046C243.07 260.615 190.683 272.383 151.113 247.33C111.544 222.277 99.7755 169.89 124.828 130.321Z" fill="url(#paint0_linear_642_204)"/>
<path opacity="0.1" d="M166.982 207.312C185.742 177.681 176.93 138.453 147.299 119.693C117.669 100.932 78.4403 109.745 59.6801 139.375C40.9199 169.006 49.7321 208.234 79.3626 226.994C108.993 245.754 148.221 236.942 166.982 207.312ZM70.4103 146.169C85.4184 122.464 116.801 115.415 140.506 130.423C164.21 145.431 171.26 176.814 156.251 200.518C141.243 224.222 109.861 231.272 86.1562 216.264C62.4518 201.256 55.4021 169.873 70.4103 146.169Z" fill="url(#paint1_linear_642_204)"/>
<path opacity="0.1" d="M22.7347 149.124C35.2907 129.292 61.546 123.394 81.3774 135.95C101.209 148.507 107.107 174.762 94.5507 194.593C81.9947 214.425 55.7394 220.322 35.908 207.766C16.0766 195.21 10.1787 168.955 22.7347 149.124ZM87.3691 190.046C97.4139 174.181 92.6956 153.177 76.8305 143.132C60.9653 133.087 39.9611 137.806 29.9163 153.671C19.8715 169.536 24.5898 190.54 40.4549 200.585C56.3201 210.63 77.3243 205.911 87.3691 190.046Z" fill="url(#paint2_linear_642_204)"/>
<defs>
<linearGradient id="paint0_linear_642_204" x1="73.8921" y1="220.679" x2="388.022" y2="150.114" gradientUnits="userSpaceOnUse">
<stop stop-color="white" stop-opacity="0"/>
<stop offset="1" stop-color="white" stop-opacity="0.7"/>
</linearGradient>
<linearGradient id="paint1_linear_642_204" x1="39.8965" y1="200.299" x2="228.078" y2="158.026" gradientUnits="userSpaceOnUse">
<stop stop-color="white" stop-opacity="0"/>
<stop offset="1" stop-color="white" stop-opacity="0.7"/>
</linearGradient>
<linearGradient id="paint2_linear_642_204" x1="63.3557" y1="224.001" x2="35.0631" y2="98.0529" gradientUnits="userSpaceOnUse">
<stop stop-color="white" stop-opacity="0"/>
<stop offset="1" stop-color="white" stop-opacity="0.7"/>
</linearGradient>
</defs>
</svg>
